<?xml version="1.0" standalone="no"?>
<!DOCTYPE svg PUBLIC "-//W3C//DTD SVG 20010904//EN"
 "http://www.w3.org/TR/2001/REC-SVG-20010904/DTD/svg10.dtd">
<svg version="1.0" xmlns="http://www.w3.org/2000/svg"
 width="308.000000pt" height="445.000000pt" viewBox="0 0 308.000000 445.000000"
 preserveAspectRatio="xMidYMid meet">
<metadata>
Created by potrace 1.11, written by Peter Selinger 2001-2013
</metadata>
<g transform="translate(0.000000,445.000000) scale(0.100000,-0.100000)"
fill="#000000" stroke="none">
<path d="M1756 4230 c-119 -21 -265 -96 -366 -187 -160 -144 -260 -368 -260
-583 0 -100 35 -252 75 -331 19 -35 19 -66 1 -100 -55 -106 -80 -287 -60 -433
17 -124 52 -223 114 -322 11 -18 9 -26 -12 -60 -27 -43 -69 -144 -89 -214 -8
-26 -13 -103 -13 -185 -1 -118 3 -151 21 -211 28 -87 61 -164 72 -164 5 0 20
17 33 38 41 62 124 147 183 187 42 30 54 43 50 59 -2 12 -9 59 -14 106 -26
213 -32 283 -24 290 4 4 42 19 83 33 41 14 140 48 219 76 l144 51 146 -51 c80
-28 180 -62 221 -76 41 -14 78 -28 82 -32 7 -6 -9 -172 -32 -334 -6 -44 -10
-80 -8 -81 91 -61 167 -133 230 -218 39 -53 44 -52 73 17 45 105 58 177 58
310 0 151 -17 223 -82 358 l-40 83 38 75 c70 132 86 203 86 369 -1 154 -6 181
-57 312 l-31 77 22 53 c48 118 61 188 61 317 0 177 -40 314 -131 448 -52 77
-162 178 -246 228 -124 72 -213 97 -368 101 -71 1 -152 -1 -179 -6z m164 -535
l0 -194 -32 -5 c-18 -3 -66 -10 -107 -16 -41 -6 -78 -13 -84 -17 -7 -4 -8 18
-4 63 9 103 54 194 156 313 70 82 71 79 71 -144z m-529 -944 c17 -17 29 -40
29 -55 0 -25 -2 -26 -65 -26 -47 0 -65 -4 -65 -13 0 -35 57 -50 80 -22 15 18
40 20 40 3 0 -27 -34 -48 -76 -48 -34 0 -47 5 -63 26 -23 29 -28 92 -10 125
24 45 89 50 130 10z m112 14 c9 -8 17 -20 19 -27 3 -9 15 -4 38 15 41 35 63
22 31 -19 -27 -35 -27 -53 4 -94 30 -41 31 -50 6 -50 -11 0 -30 14 -42 31
l-22 32 -26 -32 c-24 -28 -61 -43 -61 -23 0 4 13 26 30 48 l29 41 -25 36 c-32
48 -18 79 19 42z m217 5 c27 17 70 11 95 -15 30 -30 34 -92 8 -137 -17 -28
-21 -30 -70 -26 -47 4 -53 2 -53 -14 0 -13 -6 -18 -17 -16 -15 3 -18 17 -21
97 -3 95 8 132 32 112 7 -6 17 -6 26 -1z m430 -16 c23 -20 30 -34 28 -53 -3
-25 -6 -26 -65 -29 -42 -2 -63 -7 -63 -15 0 -35 57 -50 80 -22 15 18 40 20 40
3 0 -27 -34 -48 -76 -48 -55 0 -84 33 -84 94 1 86 76 124 140 70z m200 4 c30
-32 9 -46 -35 -23 -26 15 -38 16 -46 8 -16 -16 -4 -30 34 -38 63 -14 86 -51
56 -89 -17 -21 -29 -26 -65 -26 -43 0 -84 24 -84 50 0 16 36 12 50 -6 16 -19
65 -15 65 6 0 8 -19 22 -45 31 -52 19 -65 36 -56 72 10 42 92 51 126 15z m190
2 c34 -34 4 -56 -31 -24 -11 10 -25 13 -39 9 -32 -10 -19 -28 31 -42 67 -20
86 -56 49 -93 -38 -38 -140 -19 -140 27 0 18 36 17 44 -2 3 -9 18 -15 36 -15
23 0 30 4 30 20 0 14 -11 22 -42 31 -54 14 -68 25 -68 55 0 50 91 73 130 34z"/>
<path d="M430 3514 l0 -165 38 3 37 3 5 100 5 100 32 -85 c40 -102 46 -115 63
-115 17 0 23 13 63 115 l32 85 5 -100 5 -100 35 0 35 0 3 163 3 163 -57 -3
-57 -3 -26 -72 c-39 -108 -44 -108 -81 -9 l-33 86 -53 0 -54 0 0 -166z"/>
<path d="M500 2675 l0 -166 113 3 112 3 0 35 0 35 -72 3 c-70 3 -73 4 -73 27
0 23 3 24 73 27 l72 3 3 32 3 32 -73 3 c-71 3 -73 4 -76 31 l-3 27 75 0 76 0
0 35 0 35 -115 0 -115 0 0 -165z"/>
<path d="M1825 2195 c-33 -13 -116 -43 -185 -68 l-125 -46 3 -43 c1 -24 7 -72
12 -108 5 -36 12 -94 16 -128 6 -59 8 -63 28 -59 48 12 142 49 152 60 6 7 31
59 56 117 81 187 121 270 130 270 5 0 12 -10 17 -22 5 -13 30 -68 56 -123 26
-55 62 -133 81 -172 22 -49 40 -76 56 -82 13 -5 51 -20 85 -34 35 -14 65 -22
68 -17 5 8 45 302 45 332 0 11 -12 21 -32 27 -18 5 -106 34 -195 65 -89 31
-173 56 -185 55 -13 0 -50 -11 -83 -24z"/>
<path d="M540 1943 c-42 -113 -71 -188 -86 -221 -7 -18 -14 -35 -14 -37 0 -3
20 -5 43 -5 37 0 46 4 55 25 11 24 16 26 75 23 53 -3 63 -6 72 -25 8 -18 18
-23 47 -23 47 0 47 6 8 101 -16 41 -30 79 -30 84 0 6 -6 22 -14 36 -7 14 -16
38 -20 55 -10 37 -21 44 -73 44 -42 0 -42 0 -63 -57z"/>
<path d="M2118 1198 c-3 -80 -4 -83 -26 -80 -12 2 -47 -11 -77 -28 l-55 -31 0
-74 0 -73 51 -32 c29 -17 59 -32 68 -32 9 -1 40 13 69 31 l52 33 0 169 0 168
-30 16 c-16 8 -34 15 -39 15 -6 0 -11 -36 -13 -82z"/>
<path d="M1370 1100 c-70 -44 -70 -44 -70 -128 0 -100 6 -108 53 -76 33 22 37
29 37 68 0 54 19 74 55 58 22 -10 25 -18 25 -62 0 -45 3 -51 30 -65 16 -8 34
-15 40 -15 6 0 10 34 10 90 l0 89 -61 36 c-33 19 -63 35 -67 34 -4 0 -27 -13
-52 -29z"/>
<path d="M2350 1098 c-30 -17 -58 -36 -62 -42 -4 -6 -8 -39 -8 -74 l0 -62 55
-35 c30 -19 61 -35 69 -35 17 0 76 32 76 42 0 3 -25 21 -56 38 -47 27 -55 36
-52 58 2 14 11 30 21 36 15 9 22 7 37 -12 10 -12 20 -28 22 -34 3 -8 16 -5 41
11 35 22 45 44 29 67 -6 8 -108 74 -115 74 -1 0 -27 -14 -57 -32z"/>
</g>
</svg>
